<svg width="40" height="39" viewBox="0 0 40 39" fill="none" xmlns="http://www.w3.org/2000/svg">
<g clip-path="url(#clip0_44_36196)">
<g clip-path="url(#clip1_44_36196)">
<path d="M15.1 38C15.9 38 16.6 37.3 16.6 36.5C16.6 35.7 15.9 35 15.1 35C14.3 35 13.6 35.7 13.6 36.5C13.6 37.3 14.3 38 15.1 38Z" stroke="#333333" stroke-width="2" stroke-linecap="round" stroke-linejoin="round"/>
<path d="M31.6 38C32.4 38 33.1 37.3 33.1 36.5C33.1 35.7 32.4 35 31.6 35C30.8 35 30.1 35.7 30.1 36.5C30.1 37.3 30.8 38 31.6 38Z" stroke="#333333" stroke-width="2" stroke-linecap="round" stroke-linejoin="round"/>
<path d="M3.09998 6.5H9.09998L13.1 26.6C13.2 27.3 13.6 27.9 14.2 28.4C14.7 28.8 15.4 29.1 16.1 29.1H30.7C31.4 29.1 32.1 28.9 32.6 28.4C33.1 28 33.5 27.3 33.7 26.6L36.1 14H10.6" stroke="#333333" stroke-width="2" stroke-linecap="round" stroke-linejoin="round"/>
</g>
</g>
<defs>
<clipPath id="clip0_44_36196">
<rect width="39" height="39" fill="white" transform="translate(0.599976)"/>
</clipPath>
<clipPath id="clip1_44_36196">
<rect width="300" height="300" fill="white" transform="translate(-124.4 -1)"/>
</clipPath>
</defs>
</svg>
