<svg width="40" height="39" viewBox="0 0 40 39" fill="none" xmlns="http://www.w3.org/2000/svg">
<g clip-path="url(#clip0_44_36194)">
<path d="M32.7 12.5C31.9 11.7 30.9 11.1 29.9 10.7C28.8 10.3 27.7 10.1 26.6 10.1C25.5 10.1 24.2 10.2 23.2 10.6C22.1 11 21.2 11.6 20.4 12.4L18.7 14L17 12.4C15.4 10.9 13.1996 10 10.8996 10C8.59956 10 6.39956 10.9 4.79956 12.5C3.19956 14.1 2.29956 16.2 2.29956 18.5C2.29956 20.7 3.19956 22.9 4.79956 24.5L6.49956 26.1L18.7 38L31 26.1L32.7 24.5C33.5 23.7 34.1 22.8 34.6 21.8C35 20.8 35.3 19.7 35.3 18.6C35.3 17.5 35.1 16.4 34.6 15.4C34.1 14.2 33.5 13.3 32.7 12.5Z" stroke="#333333" stroke-width="2" stroke-linecap="round" stroke-linejoin="round"/>
</g>
<defs>
<clipPath id="clip0_44_36194">
<rect width="39" height="39" fill="white" transform="translate(0.199951)"/>
</clipPath>
</defs>
</svg>
