<svg width="40" height="39" viewBox="0 0 40 39" fill="none" xmlns="http://www.w3.org/2000/svg">
<g clip-path="url(#clip0_44_36192)">
<g clip-path="url(#clip1_44_36192)">
<path d="M39.3003 9.89961L36.6003 5.09961V2.69961V2.59961V2.49961C36.6003 2.49961 36.6003 2.49961 36.5004 2.39961L36.4004 2.29961C36.4004 2.29961 36.3003 2.29961 36.3003 2.19961L36.2003 2.09961C36.2003 2.09961 36.1003 2.09961 36.0004 2.09961H35.9004H35.8003H35.7003L24.1003 7.39961C24.1003 7.39961 24.1004 7.29961 24.0004 7.29961C24.0004 7.29961 24.0004 7.19961 23.9004 7.19961C23.9004 6.99961 23.8003 6.89961 23.7003 6.69961C23.7003 6.69961 23.7003 6.69961 23.7003 6.59961C23.6003 6.39961 23.4003 6.29961 23.3003 6.19961C23.1003 6.09961 23.0003 5.99961 22.8003 5.79961C22.8003 5.79961 22.8003 5.79961 22.7003 5.79961C22.5003 5.69961 22.4003 5.59961 22.2003 5.49961H22.1003C21.9003 5.39961 21.7004 5.39961 21.5004 5.29961V3.29961C21.5004 2.89961 21.2003 2.59961 20.9003 2.59961C20.6003 2.59961 20.2003 2.99961 20.2003 3.29961V5.29961C18.4003 5.59961 17.0004 7.19961 17.0004 9.19961C17.0004 9.59961 17.1003 9.89961 17.1003 10.2996L5.30035 15.1996C5.20035 15.1996 5.20035 15.2996 5.10035 15.2996L5.00035 15.3996C5.00035 15.3996 5.00035 15.4996 4.90035 15.4996C4.90035 15.4996 4.90035 15.4996 4.90035 15.5996C4.90035 15.6996 4.90035 15.6996 4.90035 15.7996V18.3996L2.20035 23.1996C1.90035 23.7996 1.70035 24.3996 1.70035 24.9996C1.70035 24.9996 1.70035 24.9996 1.70035 25.0996C1.70035 25.7996 1.80035 26.4996 2.20035 27.1996C2.90035 28.3996 4.10035 29.1996 5.50035 29.1996C6.90035 29.1996 8.10035 28.4996 8.80035 27.1996C9.20035 26.4996 9.30035 25.7996 9.30035 25.0996C9.30035 25.0996 9.30035 25.0996 9.30035 24.9996C9.30035 24.3996 9.10035 23.7996 8.80035 23.1996L6.10035 18.3996V16.1996L17.6003 11.3996C17.8004 11.6996 18.0003 11.8996 18.2003 12.0996C18.4003 12.2996 18.7003 12.4996 18.9003 12.5996C18.9003 12.5996 19.0004 12.5996 19.0004 12.6996C19.1004 12.6996 19.2003 12.7996 19.3004 12.7996C19.3004 12.7996 19.4003 12.7996 19.4003 12.8996C19.5003 12.8996 19.6003 12.9996 19.7003 12.9996C19.8003 12.9996 19.8003 12.9996 19.9003 12.9996C20.0003 12.9996 20.0003 12.9996 20.1003 12.9996V28.8996H16.3004V32.1996C13.2003 32.1996 10.6003 34.8996 10.6003 38.0996V38.9996H30.9004V38.2996C30.9004 34.9996 28.3003 32.3996 25.2003 32.3996V29.0996H21.4003V13.1996C21.6003 13.1996 21.8004 13.0996 22.0004 12.9996H22.1003C22.3004 12.8996 22.5003 12.7996 22.6003 12.6996C22.6003 12.6996 22.6003 12.6996 22.7003 12.6996C22.9003 12.5996 23.0003 12.4996 23.2003 12.2996C23.4003 12.1996 23.5003 11.9996 23.6003 11.8996C23.6003 11.8996 23.6003 11.8996 23.6003 11.7996C23.7003 11.5996 23.8004 11.4996 23.9004 11.2996C23.9004 11.2996 23.9004 11.1996 24.0004 11.1996C24.1004 10.9996 24.2003 10.7996 24.2003 10.6996V10.5996C24.3003 10.3996 24.3004 10.1996 24.4004 9.99961V9.89961C24.4004 9.69961 24.5004 9.49961 24.5004 9.19961C24.5004 8.99961 24.5004 8.79961 24.4004 8.59961L35.2003 3.59961V5.09961L32.5004 9.89961C31.8004 11.0996 31.8004 12.5996 32.5004 13.8996C33.2004 15.0996 34.4003 15.8996 35.8003 15.8996C37.2003 15.8996 38.4003 15.1996 39.1003 13.8996C40.0004 12.6996 40.0003 11.1996 39.3003 9.89961ZM5.60035 27.8996C4.70035 27.8996 3.90035 27.3996 3.40035 26.5996C3.30035 26.2996 3.20035 26.0996 3.10035 25.7996H8.10035C8.00035 26.0996 8.00035 26.2996 7.80035 26.5996C7.30035 27.3996 6.50035 27.8996 5.60035 27.8996ZM8.00035 24.4996H3.20035C3.30035 24.2996 3.30035 24.0996 3.40035 23.9996L5.60035 19.9996L7.80035 23.9996C7.90035 24.0996 8.00035 24.2996 8.00035 24.4996ZM29.6003 37.6996H12.0004C12.3004 35.4996 14.2003 33.6996 16.4003 33.6996H25.3003C27.5003 33.6996 29.3004 35.3996 29.6003 37.6996ZM24.0004 32.3996H17.7003V30.3996H24.0004V32.3996ZM20.8004 6.59961C21.8004 6.59961 22.7003 7.29961 23.1003 8.19961L23.2003 8.49961C23.2003 8.59961 23.3003 8.79961 23.3003 8.89961C23.3003 8.99961 23.3003 9.19961 23.3003 9.29961C23.3003 10.7996 22.2003 11.8996 20.8004 11.8996C20.6003 11.8996 20.5004 11.8996 20.3004 11.8996H20.2003C20.1003 11.8996 20.0003 11.7996 19.9003 11.7996H19.8004C19.7003 11.6996 19.6003 11.6996 19.4003 11.5996C19.3003 11.5996 19.3003 11.4996 19.2003 11.4996C19.1003 11.4996 19.1004 11.3996 19.0004 11.3996C18.9004 11.2996 18.9004 11.2996 18.8004 11.1996C18.7003 10.9996 18.5003 10.7996 18.4003 10.5996L18.3004 10.3996C18.2003 10.0996 18.1003 9.79961 18.1003 9.39961C18.3004 7.79961 19.4004 6.59961 20.8004 6.59961ZM36.0004 6.59961L38.2003 10.5996C38.3003 10.7996 38.4004 10.9996 38.5004 11.2996H33.6003C33.7003 11.0996 33.7004 10.8996 33.9004 10.5996L36.0004 6.59961ZM36.0004 14.5996C35.1003 14.5996 34.3003 14.0996 33.8003 13.2996C33.7003 13.0996 33.6004 12.8996 33.5004 12.5996H38.4004C38.3004 12.7996 38.3004 13.0996 38.1003 13.2996C37.7003 14.0996 36.9004 14.5996 36.0004 14.5996Z" fill="#333333" stroke="#333333" stroke-width="0.5"/>
</g>
</g>
<defs>
<clipPath id="clip0_44_36192">
<rect width="39" height="39" fill="white" transform="translate(0.799957)"/>
</clipPath>
<clipPath id="clip1_44_36192">
<rect width="300" height="300" fill="white" transform="translate(-41.2)"/>
</clipPath>
</defs>
</svg>
